<?xml version="1.0" encoding="UTF-8"?>
<svg xmlns="http://www.w3.org/2000/svg" xmlns:xlink="http://www.w3.org/1999/xlink" width="283.46pt" height="283.46pt" viewBox="0 0 283.46 283.46" version="1.1">
<g id="surface1">
<path style=" stroke:none;fill-rule:nonzero;fill:rgb(13.729858%,12.159729%,12.548828%);fill-opacity:1;" d="M 120.890625 118.128906 C 120.3125 118.4375 119.875 118.496094 119.839844 118.4375 C 119.796875 118.378906 120.300781 118.085938 120.703125 117.90625 C 121.007812 117.769531 121.535156 117.515625 121.5625 117.578125 C 121.589844 117.648438 121.46875 117.820312 120.890625 118.128906 M 119.25 115.066406 C 119.480469 114.882812 120.386719 114.457031 120.445312 114.554688 C 120.5 114.648438 119.664062 115.324219 119.460938 115.402344 C 119.257812 115.480469 119.019531 115.246094 119.25 115.066406 M 121.207031 115.988281 C 121.246094 116.046875 120.828125 116.34375 120.78125 116.296875 C 120.734375 116.25 121.167969 115.933594 121.207031 115.988281 M 101.921875 70.515625 C 102.195312 70.414062 102.484375 70.359375 102.761719 70.351562 C 102.925781 70.34375 103.082031 70.351562 103.230469 70.367188 C 102.789062 70.402344 102.351562 70.453125 101.921875 70.515625 M 98.78125 71.710938 C 98.714844 71.863281 98.671875 72.007812 98.640625 72.144531 C 98.613281 72.183594 98.578125 72.21875 98.550781 72.257812 C 98.476562 72.371094 98.410156 72.484375 98.351562 72.59375 C 98.328125 72.625 98.3125 72.65625 98.289062 72.6875 C 98.296875 72.605469 98.304688 72.523438 98.316406 72.441406 C 98.324219 72.355469 98.359375 72.273438 98.378906 72.1875 C 98.410156 72.011719 98.503906 71.855469 98.578125 71.695312 C 98.714844 71.367188 98.976562 71.128906 99.28125 71.003906 C 99.28125 71.003906 99.285156 71.003906 99.285156 71.003906 C 99.050781 71.214844 98.878906 71.472656 98.78125 71.710938 M 99.789062 148.96875 C 100.636719 149.40625 101.871094 149.691406 101.714844 149.894531 C 101.5625 150.101562 100.125 150 97.167969 151.128906 C 94.210938 152.257812 92.078125 153.546875 88.84375 154.675781 C 85.605469 155.804688 84.679688 155.933594 84.574219 155.859375 C 84.472656 155.78125 86.039062 153.546875 86.914062 151.953125 C 87.789062 150.359375 88.714844 148.558594 89.253906 147.710938 C 89.792969 146.863281 90.175781 146.117188 90.667969 146.195312 C 91.15625 146.273438 92.054688 145.808594 92.492188 145.863281 C 92.925781 145.914062 92.78125 146.09375 94.394531 146.8125 C 96.003906 147.527344 98.941406 148.535156 99.789062 148.96875 M 75.785156 136.71875 C 75.785156 137.027344 75.285156 137.644531 74.417969 138.953125 C 73.550781 140.265625 73.414062 141.480469 73.050781 142.445312 C 72.683594 143.40625 72.414062 144.195312 73.128906 144.484375 C 73.839844 144.777344 74.941406 145.199219 74.941406 145.199219 C 74.941406 145.199219 74.515625 145.96875 74.035156 147.320312 C 73.550781 148.667969 72.78125 150.617188 72.722656 152.871094 C 72.664062 155.125 72.085938 156.847656 72.085938 156.847656 C 72.085938 156.847656 71.699219 156.796875 71.445312 156.949219 C 71.1875 157.101562 71.136719 157.785156 71.171875 158.453125 C 71.210938 159.121094 71.449219 160.078125 71.449219 160.078125 C 71.449219 160.078125 70.289062 162.308594 69.078125 163.71875 C 67.871094 165.132812 65.714844 167.035156 63.21875 170.042969 C 60.730469 173.046875 60.265625 176.59375 59.082031 178.574219 C 58.378906 179.75 57.003906 181.925781 55.855469 183.71875 C 43.460938 181.507812 34.050781 170.683594 34.050781 157.65625 C 34.050781 143.035156 45.90625 131.175781 60.53125 131.175781 C 66.230469 131.175781 71.503906 132.984375 75.820312 136.046875 C 75.792969 136.34375 75.785156 136.589844 75.785156 136.71875 M 83.035156 105.257812 C 83.214844 105.15625 84.320312 105.101562 85.707031 104.484375 C 87.09375 103.871094 87.632812 103.535156 87.632812 103.535156 C 87.632812 103.535156 87.582031 104.511719 87.277344 106.722656 C 86.964844 108.933594 87.171875 110.808594 86.835938 112.375 C 86.503906 113.945312 86.171875 115.023438 85.886719 115.792969 C 85.605469 116.566406 85.320312 117.257812 85.320312 117.257812 C 85.320312 117.257812 84.5 115.535156 84.398438 114.789062 C 84.292969 114.046875 84.0625 111.015625 83.730469 108.90625 C 83.394531 106.800781 82.855469 105.359375 83.035156 105.257812 M 98.023438 84.527344 C 98.03125 84.535156 98.042969 84.539062 98.046875 84.542969 C 98.058594 84.554688 98.066406 84.570312 98.078125 84.582031 C 98.058594 84.566406 98.042969 84.546875 98.023438 84.527344 M 97.480469 74.234375 C 97.367188 74.394531 97.25 74.523438 97.140625 74.617188 C 97.148438 74.585938 97.148438 74.550781 97.15625 74.527344 C 97.199219 74.410156 97.265625 74.316406 97.398438 74.199219 C 97.441406 74.152344 97.492188 74.113281 97.542969 74.070312 C 97.519531 74.125 97.496094 74.179688 97.480469 74.234375 M 97.1875 75.132812 C 97.167969 75.058594 97.15625 74.984375 97.140625 74.90625 C 97.132812 74.863281 97.132812 74.824219 97.132812 74.785156 C 97.191406 74.757812 97.257812 74.726562 97.328125 74.6875 C 97.277344 74.847656 97.230469 75 97.1875 75.132812 M 97.113281 83.503906 C 97.109375 83.488281 97.109375 83.46875 97.109375 83.453125 C 97.109375 83.460938 97.113281 83.46875 97.117188 83.472656 C 97.140625 83.53125 97.175781 83.585938 97.210938 83.640625 C 97.242188 83.730469 97.273438 83.808594 97.308594 83.878906 C 97.214844 83.769531 97.144531 83.648438 97.113281 83.503906 M 106.667969 70.308594 C 107.066406 70.414062 107.433594 70.566406 107.691406 70.761719 C 107.707031 70.777344 107.71875 70.789062 107.734375 70.804688 C 107.710938 70.804688 107.6875 70.808594 107.664062 70.8125 C 107.59375 70.785156 107.519531 70.757812 107.449219 70.734375 C 107.28125 70.609375 107.074219 70.484375 106.8125 70.378906 C 106.71875 70.339844 106.617188 70.300781 106.515625 70.273438 C 106.566406 70.285156 106.617188 70.292969 106.667969 70.308594 M 108.765625 70.957031 C 109.175781 70.964844 109.617188 70.992188 110.023438 71.105469 C 110.273438 71.164062 110.496094 71.277344 110.691406 71.417969 C 110.460938 71.265625 110.171875 71.136719 109.875 71.097656 C 109.582031 71.050781 109.285156 71.050781 109 71.074219 C 108.824219 71.089844 108.648438 71.113281 108.476562 71.140625 C 108.34375 71.082031 108.207031 71.027344 108.070312 70.972656 C 108.292969 70.960938 108.523438 70.949219 108.765625 70.957031 M 110.410156 71.980469 C 110.320312 71.964844 110.230469 71.957031 110.144531 71.945312 C 109.988281 71.855469 109.820312 71.765625 109.640625 71.679688 C 109.691406 71.679688 109.742188 71.679688 109.789062 71.6875 C 110.019531 71.714844 110.222656 71.777344 110.421875 71.886719 C 110.496094 71.925781 110.5625 71.972656 110.625 72.015625 C 110.554688 72.003906 110.480469 71.988281 110.410156 71.980469 M 111.125 72.464844 C 111.199219 72.550781 111.257812 72.640625 111.304688 72.734375 C 111.308594 72.738281 111.3125 72.742188 111.3125 72.746094 C 111.15625 72.609375 110.984375 72.476562 110.785156 72.339844 C 110.902344 72.375 111.019531 72.414062 111.125 72.464844 M 112.003906 77.027344 C 112.140625 76.882812 112.265625 76.703125 112.347656 76.480469 C 112.34375 76.503906 112.34375 76.523438 112.335938 76.546875 C 112.265625 76.835938 112.054688 77.117188 111.863281 77.3125 C 111.765625 77.410156 111.664062 77.492188 111.570312 77.558594 C 111.550781 77.472656 111.542969 77.394531 111.550781 77.316406 C 111.679688 77.265625 111.847656 77.183594 112.003906 77.027344 M 112.148438 76.046875 C 112.152344 76.097656 112.15625 76.148438 112.152344 76.199219 C 112.113281 76.460938 112.015625 76.738281 111.875 76.914062 C 111.769531 77.046875 111.65625 77.148438 111.554688 77.222656 C 111.609375 76.894531 111.84375 76.558594 112.148438 76.046875 M 111.675781 72.832031 C 111.71875 72.871094 111.765625 72.910156 111.808594 72.949219 C 111.917969 73.089844 112.042969 73.21875 112.113281 73.378906 C 112.207031 73.523438 112.242188 73.683594 112.300781 73.832031 C 112.316406 73.917969 112.332031 74 112.34375 74.078125 C 112.25 73.917969 112.136719 73.773438 112.019531 73.640625 C 111.96875 73.554688 111.921875 73.472656 111.867188 73.386719 C 111.8125 73.289062 111.738281 73.191406 111.660156 73.097656 C 111.675781 73.015625 111.679688 72.921875 111.675781 72.832031 M 112.515625 77.238281 C 112.425781 77.503906 112.28125 77.746094 112.121094 77.921875 C 112.023438 78.035156 111.894531 78.089844 111.769531 78.121094 C 111.71875 77.996094 111.675781 77.882812 111.636719 77.777344 C 111.773438 77.742188 111.925781 77.6875 112.074219 77.59375 C 112.222656 77.503906 112.375 77.386719 112.515625 77.238281 M 122.332031 114.996094 C 122.332031 114.996094 122.546875 114.535156 122.332031 114.148438 C 122.121094 113.761719 121.410156 114.035156 121.410156 114.035156 C 121.410156 114.035156 121.660156 113.398438 121.527344 113.167969 C 121.390625 112.933594 120.945312 112.878906 120.328125 113.03125 C 119.714844 113.183594 117.976562 114.011719 117.226562 114.226562 C 116.472656 114.4375 115.820312 114.378906 115.625 114.089844 C 115.433594 113.800781 116.203125 112.878906 116.667969 112.183594 C 117.128906 111.488281 117.074219 111.335938 117.125 110.566406 C 117.175781 109.792969 116.570312 109.773438 116.339844 110.214844 C 116.109375 110.660156 115.144531 111.507812 114.992188 111.914062 C 114.835938 112.316406 114.085938 113.011719 113.738281 113.746094 C 113.390625 114.476562 112.503906 116.808594 111.964844 117.464844 C 111.425781 118.121094 107.992188 118.582031 106.800781 118.660156 C 105.605469 118.738281 103.503906 118.082031 103.367188 117.925781 C 103.234375 117.773438 103.523438 116.886719 103.925781 115.84375 C 104.332031 114.804688 104.429688 113.761719 104.621094 112.703125 C 104.816406 111.644531 105.644531 111.160156 106.511719 109.832031 C 107.378906 108.503906 107.589844 106.402344 107.4375 104.800781 C 107.28125 103.203125 106.066406 99.230469 105.796875 98.113281 C 105.527344 96.996094 104.566406 94.527344 104.449219 93.257812 C 104.332031 91.984375 105.71875 91.695312 106.089844 91.25 C 106.460938 90.808594 106.144531 89.863281 106.453125 89.554688 C 106.761719 89.246094 107.800781 89.691406 108.941406 89.496094 C 110.074219 89.304688 110.132812 88.167969 110.191406 87.53125 C 110.25 86.898438 110.671875 87.050781 110.90625 86.625 C 111.136719 86.203125 110.710938 85.855469 110.710938 85.855469 C 110.710938 85.855469 111.039062 85.796875 111.171875 85.585938 C 111.3125 85.375 111.136719 85.085938 111.171875 84.523438 C 111.210938 83.964844 112.734375 84.0625 112.734375 83.523438 C 112.734375 82.984375 111.925781 82.210938 111.558594 81.519531 C 111.195312 80.824219 111.714844 80.265625 111.984375 79.667969 C 112.164062 79.265625 111.992188 78.710938 111.808594 78.226562 C 111.945312 78.21875 112.113281 78.167969 112.242188 78.046875 C 112.480469 77.816406 112.742188 77.503906 112.835938 77.070312 C 112.867188 76.953125 112.871094 76.816406 112.863281 76.683594 C 112.9375 76.460938 112.953125 76.203125 112.898438 75.976562 C 112.84375 75.734375 112.742188 75.523438 112.632812 75.328125 C 112.609375 75.292969 112.585938 75.261719 112.5625 75.226562 C 112.59375 75.082031 112.609375 74.917969 112.585938 74.761719 C 112.570312 74.660156 112.550781 74.558594 112.519531 74.460938 C 112.527344 74.402344 112.53125 74.34375 112.535156 74.285156 C 112.558594 74.132812 112.53125 73.96875 112.523438 73.789062 C 112.480469 73.617188 112.449219 73.425781 112.351562 73.253906 C 112.277344 73.074219 112.144531 72.917969 112.019531 72.753906 C 111.871094 72.613281 111.730469 72.460938 111.550781 72.347656 C 111.542969 72.34375 111.535156 72.339844 111.53125 72.339844 C 111.519531 72.28125 111.507812 72.21875 111.492188 72.160156 C 111.441406 71.96875 111.382812 71.765625 111.25 71.570312 C 111.003906 71.179688 110.550781 70.925781 110.101562 70.808594 C 109.648438 70.699219 109.1875 70.683594 108.765625 70.6875 C 108.460938 70.691406 108.183594 70.738281 107.929688 70.777344 C 107.894531 70.726562 107.855469 70.679688 107.804688 70.632812 C 107.535156 70.390625 107.167969 70.179688 106.742188 70.050781 C 106.320312 69.925781 105.84375 69.835938 105.359375 69.894531 C 104.957031 69.949219 104.589844 70.082031 104.246094 70.210938 C 104.082031 70.234375 103.921875 70.253906 103.757812 70.277344 C 103.738281 70.28125 103.722656 70.285156 103.703125 70.285156 C 103.664062 70.269531 103.621094 70.25 103.578125 70.234375 C 103.34375 70.171875 103.070312 70.082031 102.757812 70.085938 C 102.453125 70.078125 102.121094 70.128906 101.804688 70.230469 C 101.582031 70.300781 101.40625 70.425781 101.242188 70.546875 C 101.128906 70.53125 101.015625 70.515625 100.902344 70.507812 C 100.59375 70.488281 100.277344 70.523438 99.976562 70.609375 C 99.941406 70.621094 99.910156 70.636719 99.875 70.648438 C 99.660156 70.644531 99.421875 70.664062 99.183594 70.757812 C 98.996094 70.820312 98.828125 70.933594 98.667969 71.0625 C 98.523438 71.207031 98.390625 71.371094 98.304688 71.554688 C 98.226562 71.738281 98.132812 71.917969 98.101562 72.113281 C 98.078125 72.210938 98.050781 72.304688 98.039062 72.398438 C 98.03125 72.496094 98.027344 72.589844 98.019531 72.683594 C 98.015625 72.789062 98.019531 72.890625 98.03125 72.988281 C 98.003906 73.003906 97.980469 73.015625 97.957031 73.03125 C 97.785156 73.144531 97.609375 73.261719 97.445312 73.394531 C 97.277344 73.523438 97.128906 73.671875 96.996094 73.835938 C 96.863281 73.980469 96.730469 74.210938 96.703125 74.433594 C 96.675781 74.664062 96.738281 74.859375 96.800781 75.007812 C 96.894531 75.210938 96.992188 75.363281 97.074219 75.492188 C 96.9375 75.917969 96.820312 76.25 96.660156 76.660156 C 96.414062 77.292969 96.425781 79.515625 96.617188 80.414062 C 96.574219 80.507812 96.53125 80.601562 96.5 80.707031 C 96.398438 81.019531 96.433594 81.371094 96.601562 81.597656 C 96.609375 81.867188 96.660156 82.128906 96.714844 82.382812 C 96.746094 82.53125 96.792969 82.675781 96.84375 82.816406 C 96.789062 83.050781 96.757812 83.308594 96.816406 83.578125 C 96.894531 83.917969 97.175781 84.1875 97.410156 84.335938 C 97.640625 84.5 97.859375 84.632812 98.019531 84.78125 C 98.070312 84.828125 98.117188 84.875 98.15625 84.921875 C 98.179688 85.175781 98.164062 85.492188 98.105469 85.664062 C 98.007812 85.949219 97.046875 85.988281 95.738281 86.105469 C 94.425781 86.222656 93.726562 86.703125 91.953125 87.5 C 90.179688 88.296875 87.839844 91.636719 86.863281 92.511719 C 85.886719 93.382812 84.421875 93.976562 81.929688 95.46875 C 79.4375 96.957031 77.023438 100.089844 75.992188 101.273438 C 74.964844 102.457031 74.476562 102.328125 74.039062 103.328125 C 73.605469 104.332031 74.53125 105.335938 74.890625 106.257812 C 75.25 107.183594 75.96875 111.21875 77.253906 114.277344 C 78.539062 117.335938 79.527344 118.351562 80.453125 119.914062 C 81.375 121.472656 82.1875 122.726562 82.226562 122.824219 C 82.261719 122.917969 81.648438 122.996094 81.398438 123.074219 C 81.257812 123.117188 80.808594 123.546875 80.265625 124.148438 L 76.257812 127.066406 C 75.421875 126.636719 74.574219 126.234375 73.707031 125.875 L 73.953125 121.28125 L 68.402344 119.371094 L 65.445312 123.601562 C 64.535156 123.472656 63.617188 123.378906 62.691406 123.320312 L 61.410156 118.835938 L 55.539062 118.835938 L 54.109375 123.859375 C 53.40625 123.992188 52.710938 124.136719 52.03125 124.3125 L 49.40625 120.414062 L 43.820312 122.226562 L 44.011719 127.484375 C 43.222656 127.914062 42.457031 128.382812 41.710938 128.875 L 37.917969 126.011719 L 33.230469 129.542969 L 35.128906 134.472656 C 34.53125 135.132812 33.960938 135.816406 33.410156 136.519531 L 28.878906 135.042969 L 25.597656 139.910156 L 28.984375 143.9375 C 28.625 144.753906 28.300781 145.59375 28.007812 146.445312 L 23.277344 146.523438 L 21.753906 152.195312 L 26.242188 154.882812 C 26.171875 155.785156 26.125 156.6875 26.125 157.601562 L 21.710938 159.207031 L 22.121094 165.0625 L 27.183594 166.128906 C 27.410156 167.03125 27.683594 167.914062 27.980469 168.785156 L 24.367188 171.703125 L 26.660156 177.105469 L 31.746094 176.476562 C 32.261719 177.261719 32.808594 178.023438 33.382812 178.761719 L 30.941406 182.660156 L 34.871094 187.023438 L 39.417969 184.796875 C 40.171875 185.382812 40.949219 185.941406 41.75 186.464844 L 40.726562 190.875 L 45.863281 193.722656 L 49.375 190.199219 C 49.679688 190.304688 49.988281 190.398438 50.296875 190.496094 C 50.246094 190.574219 50.199219 190.648438 50.152344 190.730469 C 49.625 191.695312 49.433594 192.144531 49.433594 192.144531 C 49.433594 192.144531 48.574219 192.207031 48.011719 192.671875 C 47.453125 193.132812 47.820312 194.40625 49.207031 195.386719 C 50.59375 196.371094 52.792969 197.527344 54.433594 198.335938 C 56.070312 199.148438 58.578125 200.976562 59.75 201.382812 C 60.925781 201.789062 62.777344 201.765625 65.320312 201.382812 C 67.867188 201 68.328125 200.726562 68.597656 199.722656 C 68.867188 198.722656 68.171875 198.46875 67.210938 198.355469 C 66.246094 198.242188 64.339844 198.644531 63.644531 198.085938 C 62.949219 197.527344 62.625 196.660156 62.507812 196.503906 C 62.390625 196.351562 62.332031 195.851562 62.371094 195.542969 C 62.410156 195.234375 62.121094 194.808594 62.027344 194.367188 C 61.929688 193.921875 61.5625 193.304688 61.410156 192.652344 C 61.253906 191.996094 60.8125 191.6875 60.675781 191.574219 C 60.542969 191.457031 60.734375 190.296875 60.5625 189.914062 C 60.390625 189.53125 60.039062 189.820312 60.039062 189.820312 C 60.039062 189.820312 59.984375 189.257812 60.039062 188.929688 C 60.097656 188.601562 60.242188 187.671875 61.78125 185.101562 C 63.324219 182.535156 65.738281 180.453125 67.589844 178.207031 C 69.441406 175.964844 72.355469 172.433594 73.011719 171.257812 C 73.667969 170.082031 74.667969 169.386719 74.746094 169.425781 C 74.824219 169.464844 74.957031 170.082031 75.167969 170.640625 C 75.382812 171.203125 76.191406 172.914062 77.214844 174.246094 C 78.234375 175.574219 80.046875 177.15625 81.011719 177.550781 C 81.976562 177.949219 82.378906 177.40625 82.550781 176.582031 C 82.726562 175.753906 82.148438 174.707031 81.511719 173.628906 C 80.875 172.546875 80.914062 171.351562 80.914062 170.660156 C 80.914062 169.964844 81.164062 170.003906 81.300781 169.503906 C 81.4375 169.003906 81.261719 168.808594 81.492188 168.523438 C 81.726562 168.234375 81.4375 167.921875 81.820312 167.539062 C 82.207031 167.152344 81.898438 166.824219 82.148438 166.574219 C 82.398438 166.324219 82.476562 165.511719 82.515625 165.261719 C 82.550781 165.011719 82.957031 165.261719 83.128906 165.261719 C 83.304688 165.261719 83.59375 164.585938 83.769531 164.320312 C 83.941406 164.046875 83.378906 164.109375 83.324219 164.085938 C 83.265625 164.070312 83.746094 163.71875 84.113281 163.429688 C 84.480469 163.140625 84.289062 162.640625 84.289062 162.640625 C 84.289062 162.640625 85.757812 161.742188 88.226562 161.125 C 90.691406 160.507812 95.320312 160.484375 98.863281 160.355469 C 102.410156 160.226562 105.726562 159.351562 106.546875 159.070312 C 107.371094 158.789062 109.941406 159.222656 111.042969 159.070312 C 112.152344 158.917969 114.414062 157.808594 115.699219 157.140625 C 116.980469 156.472656 117.238281 155.058594 117.085938 154.058594 C 116.933594 153.054688 117.160156 151.847656 116.621094 150.488281 C 116.082031 149.125 114.078125 145.863281 111.96875 142.855469 C 109.863281 139.847656 106.242188 137.097656 104.777344 136.042969 C 103.3125 134.992188 101.714844 133.601562 100.074219 133.242188 C 98.429688 132.882812 98.324219 131.855469 97.8125 131.652344 C 97.296875 131.445312 97.066406 131.597656 96.730469 131.46875 C 96.398438 131.339844 96.199219 131.050781 96.082031 130.957031 C 95.96875 130.859375 96.199219 130.011719 96.351562 129.761719 C 96.507812 129.511719 97.242188 128.101562 97.992188 126.636719 C 98.742188 125.171875 98.992188 123.613281 99.128906 123.476562 C 99.261719 123.34375 101.304688 123.804688 103.351562 123.863281 C 105.390625 123.921875 107.148438 123.171875 109.574219 122.800781 C 112.003906 122.4375 113.0625 121.878906 113.699219 121.589844 C 114.335938 121.296875 115.398438 121.570312 116.648438 121.335938 C 117.902344 121.105469 119.558594 119.929688 120.097656 119.605469 C 120.640625 119.277344 121.601562 119.066406 122.199219 118.273438 C 122.796875 117.484375 122.199219 117.117188 122.199219 117.117188 C 122.199219 117.117188 122.699219 116.578125 122.855469 115.84375 C 123.007812 115.113281 122.332031 114.996094 122.332031 114.996094 "/>
</g>
</svg>
