<?xml version="1.0" encoding="utf-8"?>
<!-- Generator: Adobe Illustrator 15.1.0, SVG Export Plug-In  -->
<!DOCTYPE svg PUBLIC "-//W3C//DTD SVG 1.1//EN" "http://www.w3.org/Graphics/SVG/1.1/DTD/svg11.dtd" [
	<!ENTITY ns_flows "http://ns.adobe.com/Flows/1.0/">
]>
<svg version="1.1"
	 xmlns="http://www.w3.org/2000/svg" xmlns:xlink="http://www.w3.org/1999/xlink" xmlns:a="http://ns.adobe.com/AdobeSVGViewerExtensions/3.0/"
	 x="0px" y="0px" width="300px" height="300px" viewBox="-35.296 0 300 300" enable-background="new -35.296 0 300 300"
	 xml:space="preserve">
<defs>
</defs>
<path fill-rule="evenodd" clip-rule="evenodd" fill="#FFFFFF" d="M229.407,1.708V181.94c0,28.765-9.149,56.552-28.157,78.364
	c-21.407,24.568-52.852,39.437-85.728,39.692c-43.104,0.332-82.404-23.938-102.266-61.434
	c-8.844-16.698-13.011-34.394-13.247-53.215L0,4.308C-0.035,2.05,2.213,0.056,4.526,0.06l222.991-0.059
	C228.922-0.025,229.406,0.557,229.407,1.708L229.407,1.708z M115.402,295.312"/>
<path fill-rule="evenodd" clip-rule="evenodd" fill="#1D1D1B" d="M229.407,1.708V181.94c0,28.766-9.149,56.553-28.157,78.365
	c-21.407,24.568-52.852,39.436-85.728,39.692c-43.104,0.332-82.404-23.938-102.266-61.435C4.412,221.865,0.245,204.17,0.009,185.349
	L0,4.308C-0.035,2.05,2.213,0.056,4.526,0.06l222.991-0.059C228.922-0.025,229.406,0.557,229.407,1.708L229.407,1.708z
	 M144.224,107.168c8.034,0,16.067,0,24.102,0c1.343,0,1.19-0.013,1.707-1.217c3.356-7.825,6.974-16.223,10.329-24.048
	c0.591-1.299,1.057-0.901,0.976,0.154v102.89c0,18.638-7.426,35.567-19.388,47.829c-11.894,12.189-28.287,19.756-46.308,19.756
	s-34.415-7.566-46.307-19.756c-11.963-12.262-19.388-29.191-19.388-47.829V80.524c3.997,8.476,7.994,16.952,11.99,25.428
	c0.511,1.083,0.355,1.208,1.581,1.208c7.05,0,13.591,0,20.642,0c1.336,0,1.428-0.127,0.925-1.221
	c-5.36-11.669-10.72-23.338-16.08-35.007c-0.431-0.94-0.515-0.841,0.525-0.841c4.557-0.005,9.116-0.01,13.674-0.015
	c1.893-0.001,1.501-0.047,1.218-1.82c-0.952-5.953-1.836-11.574-2.788-17.527c-0.159-0.992-0.164-1.21-1.198-1.23
	c-6.697-0.126-13.059,0-19.756-0.127c-1.016-0.02-1.107-0.172-1.551-1.064c-2.328-4.646-4.655-9.292-6.982-13.938
	c-0.528-1.055-0.603-0.929,0.606-0.925c8.52,0.035,16.515,0.071,25.034,0.104c1.08,0.005,1.338-0.09,1.212-1.097
	c-0.756-6.042-1.514-12.086-2.271-18.128c-0.133-1.075-0.134-0.891-1.245-0.891H20.568c-1.691,0.041-1.799,0.777-1.476,1.654
	l21.997,46.65v34.649c-5.779,1.221-11.696,3.138-14.988,8.204c-0.067-8.228-0.14-16.452-0.208-24.676
	c3.792-2.666,7.092-6.329,6.987-11.231c-0.497-5.239-4.847-8.497-9.09-11.038c-3.601,3.126-7.323,6.796-7.431,11.818
	c0.263,4.421,3.542,7.602,7.032,10.27l0.056-0.038c0.025,2.67,0.045,5.34,0.069,8.013c-3.336-4.094-8.856-5.783-13.911-6.838
	c0-23.734,0-47.338,0-71.072c0-0.299-0.01-0.444,0.371-0.444c69.749-0.019,139.731-0.039,209.479-0.058
	c0.365,0,0.356,0.115,0.356,0.514v71.061c-5.432,1.13-10.062,2.925-13.911,6.837c0.023-2.673,0.045-5.343,0.069-8.013l0.057,0.038
	c9.627-7.376,7.525-15.203-0.399-22.088c-10.343,6.539-12.553,14.932-2.102,22.27c-0.07,8.224-0.143,16.449-0.21,24.676
	c-2.847-4.395-8.066-6.634-13.12-7.804l0.029-37.881l19.232-44.878l-20.999,0.047c-6.689,15.622-13.381,31.244-20.071,46.866
	c-0.438,1.044-0.915,0.653-0.811-0.204l5.737-46.136c-7.374,0-14.749,0-22.123,0c-2.698,30.422-5.396,60.844-8.094,91.266
	C142.973,107.25,142.782,107.168,144.224,107.168L144.224,107.168z M26.35,131.214c3.412-4.044,9.418-6.818,14.739-7.33v-19.259
	c-2.084,6.104-9.104,9.17-14.893,11.04C26.244,120.841,26.173,126.042,26.35,131.214L26.35,131.214z M190.195,136.779l0.067,0.083
	c3.877,3.829,8.07,5.227,13.305,6.413c0.654,3.934,1.812,7.7,3.283,11.409c0.616,1.684,2.687,0.429,2.243-0.757
	c-1.36-3.471-2.413-6.962-3.062-10.63c-0.86-5.303-0.522-10.306-0.471-15.677c5.57-1.892,12.291-4.87,14.25-10.637v64.958
	c0,26.585-7.655,51.183-25.337,71.866c-19.45,22.754-48.729,36.866-79.434,36.962c-41.122,0.128-76.032-23.763-93.488-57.198
	c-7.649-14.651-11.947-31.135-11.947-48.234v-68.353c2,5.863,8.789,8.784,14.25,10.636c0.528,9.555,0.063,17.585-3.651,26.6
	c-0.783,1.676,1.711,2.36,2.362,0.465c1.477-3.715,2.626-7.472,3.284-11.408c5.779-1.317,13.899-3.781,15.239-10.406v52.079
	c0,20.894,8.353,39.901,21.81,53.694c13.527,13.864,32.197,22.471,52.743,22.471c20.546,0,39.216-8.606,52.744-22.471
	c13.457-13.793,21.81-32.801,21.81-53.694V136.779L190.195,136.779z M26.717,138.206c2.089-1.827,4.236-4.203,5.904-5.821
	c1.265-1.571,2.641-0.333,1.23,1.502c-1.724,2.241-5.015,5.294-6.783,6.875c7.298-1.85,13.214-5.874,11.795-14.701
	C32.632,127.525,27.642,131.51,26.717,138.206L26.717,138.206z M9.605,108.542c5.278,1.102,10.63,2.778,14.149,7.087
	c-0.046-5.158-0.086-10.312-0.132-15.466C18.319,98.436,11.51,95.02,9.605,89.425V108.542L9.605,108.542z M20.911,116.186
	c-2.477-2.998-5.733-4.607-9.549-5.526c-1.528,7.231,4.06,11.584,11.504,14.404c-2.347-2.09-4.962-4.314-6.709-6.938
	c-0.767-1.703,0.655-2.406,1.852-0.979c1.746,1.944,3.556,3.924,5.533,5.656C23.339,120.397,22.386,118.115,20.911,116.186
	L20.911,116.186z M27.077,110.663c2.772-2.619,3.708-3.747,5.509-5.821c0.781-0.964,2.686-0.541,2.15,0.54
	c-1.35,2.975-4.527,5.357-6.982,7.543c6.26-2.499,12.742-6.711,11.504-14.405C32.958,99.845,27.808,104.084,27.077,110.663
	L27.077,110.663z M11.32,82.979c-1.187,7.551,4.114,11.501,11.671,14.592c-2.414-2.176-5.126-4.418-6.909-7.15
	c-0.737-1.696,0.707-2.365,1.876-0.96l5.355,5.527C22.893,88.094,17.42,84.451,11.32,82.979L11.32,82.979z M30.438,68.759
	c-0.375-3.804-3.195-6.529-6.336-8.564c-2.661,2.47-5.015,5.496-5.091,9.25c0.185,3.18,1.935,5.557,4.414,7.661
	c-0.013-2.124-0.034-4.245-0.054-6.366c0.269-1.854,2.176-1.724,2.444-0.006l0.056,6.599C28.428,75.069,30.519,72.394,30.438,68.759
	L30.438,68.759z M202.639,138.09c-2.3-2.993-4.065-4.419-6.217-6.264c-1.105-1.086-2.15-0.272-1.572,1.01
	c2.275,2.49,4.527,5.114,7.498,7.927c-7.656-1.941-12.561-5.595-11.848-14.377l0.052-0.324
	C196.925,127.594,201.902,131.441,202.639,138.09L202.639,138.09z M202.339,110.663c-2.089-1.826-4.05-4.232-5.85-6.02
	c-1.434-1.77-2.452-0.038-1.571,1.2c1.855,2.692,4.299,4.906,6.744,7.082c-4.767-1.901-10.28-4.614-11.468-9.894v-4.503
	C196.347,100.009,201.03,103.022,202.339,110.663L202.339,110.663z M205.314,60.195c5.219,4.849,7.731,10.939,0.678,16.911
	c0.012-2.124,0.034-4.245,0.055-6.366c-0.22-2.189-2.521-1.443-2.443-0.006l-0.057,6.599
	C196.878,71.433,197.929,64.986,205.314,60.195L205.314,60.195z M219.811,108.543c-5.374,1.12-10.398,2.979-14.149,7.086
	c0.046-5.157,0.087-10.312,0.132-15.466c5.239-1.699,12.172-5.317,14.018-10.738V108.543L219.811,108.543z M203.067,131.215
	c-3.348-3.967-7.766-5.84-12.872-6.976v-16.031c2.911,3.885,8.375,5.962,13.025,7.457L203.067,131.215L203.067,131.215z
	 M217.995,110.66c1.654,7.869-4.315,11.449-11.443,14.405c2.369-2.114,4.957-4.304,6.708-6.938c0.769-1.702-0.656-2.405-1.851-0.979
	c-1.746,1.942-3.556,3.928-5.534,5.656C206.446,116.063,211.895,112.133,217.995,110.66L217.995,110.66z M218.095,82.979
	c0.968,7.613-3.766,11.361-11.67,14.592c2.472-2.224,4.962-4.46,6.908-7.15c0.646-1.484-0.625-2.462-1.876-0.959l-5.355,5.527
	C206.5,88.691,211.964,84.46,218.095,82.979L218.095,82.979z M89.585,13.707c-2.197,3.837-4.394,7.675-6.592,11.513
	c-0.473,0.828-0.406,1.06-0.3,2.019c1.142,10.256,2.285,20.513,3.426,30.768c0.101,0.909,0.021,1.411,0.654,2.085
	c3.039,3.241,6.077,6.483,9.115,9.724c0.674,0.719,0.76,0.647,1.77,0.646c7.51-0.01,15.021-0.021,22.531-0.031
	c1.344-0.001,1.107-0.002,1.066,1.287c-0.149,4.672-0.299,9.344-0.449,14.016c-0.037,1.204,0.162,1.189-1.09,1.19
	c-2.968,0.005-5.935,0.01-8.903,0.016c-1.242,0.001-1.259,0.222-1.335-0.988c-0.178-2.793-0.354-5.588-0.532-8.381
	c-0.085-1.352,0.017-1.197-1.379-1.187c-6.108,0.046-12.218,0.092-18.325,0.139c-1.663,0.011-1.195,0.261-1.034,1.802
	c0.605,5.777,1.21,11.554,1.814,17.331c0.141,1.336,0.028,1.776,1.013,2.704c2.762,2.604,5.524,5.209,8.286,7.813
	c0.905,0.852,1.029,0.81,2.3,0.818c9.562,0.066,17.955,0.133,27.517,0.2c1.914,0.014,1.801,0.013,2.835-1.551
	c2.424-3.661,4.848-7.322,7.271-10.982c0.734-1.11,0.73-1.654,0.816-2.983c1.015-9.953,2.028-19.906,3.042-29.859
	c0.134-1.318,0.35-1.549-0.565-2.493c-2.915-3.009-5.831-6.019-8.746-9.026c-0.871-0.898-0.98-0.829-2.241-0.824
	c-8.28,0.035-16.558,0.07-24.837,0.104c-0.588-5.132-1.177-10.265-1.766-15.397c-0.099-0.867-0.153-0.757,0.716-0.757
	c5.105,0,10.21,0,15.314,0c1.155,0,1.011-0.101,0.97,1.038c-0.073,1.969-0.008,3.938,0.031,5.908
	c0.032,1.667,0.043,1.363,1.702,1.363c6.618,0,13.235,0,19.854,0c1.743,0,1.438-0.034,1.567-1.761
	c0.358-4.782,0.716-9.564,1.072-14.346c0.067-0.901,0.244-1.166-0.367-1.819c-3.184-3.404-6.421-6.621-9.591-10
	c-0.663-0.706-0.71-0.678-1.685-0.678c-14.602,0-29.203,0-43.804,0C89.962,13.125,89.963,13.047,89.585,13.707L89.585,13.707z
	 M156.343,131.595c0,0.903-0.216,1.574-0.646,2.008c-0.438,0.434-1.098,0.651-1.985,0.651c-0.917,0-1.582-0.212-1.995-0.636
	c-0.414-0.423-0.624-1.1-0.624-2.023v-16.258c0-1.322,0.233-2.22,0.701-2.698c0.468-0.48,1.313-0.717,2.53-0.717
	c1.396,0,2.787,0.989,4.178,2.971c0.132,0.176,0.229,0.308,0.281,0.398l8.381,11.88V114.58c0-0.903,0.216-1.574,0.642-2.008
	c0.425-0.434,1.091-0.65,1.989-0.65c0.906,0,1.565,0.211,1.99,0.641c0.421,0.429,0.63,1.105,0.63,2.018v16.319
	c0,1.261-0.216,2.134-0.642,2.623c-0.426,0.49-1.175,0.731-2.235,0.731c-0.941,0-1.679-0.136-2.219-0.414
	c-0.539-0.277-1.187-0.953-1.948-2.023l-9.027-12.788V131.595L156.343,131.595z M134.291,115.554c-2.163,0-3.849,0.661-5.053,1.982
	c-1.204,1.322-1.81,3.184-1.81,5.585c0,2.396,0.605,4.257,1.81,5.584s2.89,1.987,5.053,1.987c2.187,0,3.889-0.661,5.104-1.987
	c1.217-1.327,1.822-3.188,1.822-5.584c0-2.392-0.605-4.253-1.822-5.58C138.179,116.214,136.477,115.554,134.291,115.554
	L134.291,115.554z M134.291,111.654c3.678,0,6.606,1.034,8.786,3.103c2.182,2.068,3.272,4.858,3.272,8.364
	c0,3.511-1.091,6.3-3.272,8.369c-2.18,2.068-5.108,3.102-8.786,3.102c-3.693,0-6.622-1.034-8.786-3.097
	c-2.164-2.063-3.243-4.853-3.243-8.374c0-3.526,1.079-6.316,3.243-8.38C127.668,112.683,130.597,111.654,134.291,111.654
	L134.291,111.654z M113.677,114.317c0-0.812,0.206-1.413,0.613-1.806c0.406-0.394,1.024-0.59,1.855-0.59
	c0.824,0,1.442,0.202,1.859,0.6c0.413,0.399,0.62,0.994,0.62,1.796v17.555c0,0.802-0.207,1.397-0.614,1.792
	c-0.406,0.394-1.03,0.59-1.865,0.59c-0.819,0-1.432-0.202-1.85-0.6c-0.413-0.398-0.619-0.989-0.619-1.781
	C113.677,126.021,113.677,120.169,113.677,114.317L113.677,114.317z M92.47,131.595c0,0.903-0.209,1.574-0.627,2.008
	c-0.425,0.434-1.064,0.651-1.925,0.651c-0.889,0-1.534-0.212-1.935-0.636c-0.402-0.423-0.605-1.1-0.605-2.023v-16.258
	c0-1.322,0.227-2.22,0.68-2.698c0.453-0.48,1.273-0.717,2.453-0.717c1.355,0,2.704,0.989,4.053,2.971
	c0.128,0.176,0.221,0.308,0.273,0.398l8.128,11.88c0-4.197,0-8.395,0-12.592c0-0.903,0.209-1.574,0.622-2.008
	c0.413-0.434,1.058-0.65,1.93-0.65c0.878,0,1.518,0.211,1.931,0.641c0.407,0.429,0.61,1.105,0.61,2.018v16.319
	c0,1.261-0.209,2.134-0.622,2.623c-0.413,0.49-1.14,0.731-2.168,0.731c-0.914,0-1.628-0.136-2.151-0.414
	c-0.523-0.277-1.152-0.953-1.89-2.023l-8.756-12.788V131.595L92.47,131.595z M61.028,114.317c0-0.812,0.206-1.413,0.612-1.806
	c0.407-0.394,1.031-0.59,1.867-0.59c0.825,0,1.454,0.202,1.878,0.6c0.423,0.399,0.635,0.994,0.635,1.796v11.497
	c0,1.685,0.368,2.916,1.109,3.688c0.741,0.771,1.917,1.16,3.527,1.16c1.632,0,2.819-0.383,3.566-1.155
	c0.747-0.767,1.12-1.998,1.12-3.692c0-3.832,0-7.664,0-11.497c0-0.812,0.206-1.413,0.613-1.806c0.407-0.394,1.025-0.59,1.855-0.59
	c0.825,0,1.443,0.202,1.862,0.6c0.412,0.399,0.618,0.994,0.618,1.796v11.986c0,2.669-0.825,4.717-2.474,6.145
	c-1.649,1.427-4.023,2.144-7.126,2.144c-3.121,0-5.511-0.711-7.171-2.134s-2.49-3.475-2.49-6.154V114.317L61.028,114.317z
	 M115.426,137.136c32.315,0,58.891,25.251,59.16,56.209s-25.869,56.209-58.186,56.209c-32.314,0-58.89-25.251-59.159-56.209
	C56.972,162.387,83.11,137.136,115.426,137.136L115.426,137.136z M130.473,143.897c0.564,1.271,1.129,2.542,1.692,3.812
	c0.819,1.846,0.891,1.526-0.75,2.665c-3.419,2.375-6.23,5.503-8.416,8.979c-1.234,1.963-1.083,1.7-3.496,1.655
	c-4.502-0.083-9.284,0.102-14.559,0.765c-1.46,0.184-1.505,0.3-2.591-0.656c-3.181-2.801-6.407-5.553-9.675-8.257
	c-0.963-0.797-0.646-1.035-0.437-2.245c0.214-1.237,0.428-2.474,0.642-3.711c0.251-1.451,0.423-1.352,1.847-1.924
	c10.436-4.2,21.939-5.171,32.977-2.858C129.443,142.483,129.783,142.341,130.473,143.897L130.473,143.897z M156.117,159.217
	c-1.548-0.519-3.098-1.038-4.646-1.558c-1.113-0.372-1.583-0.929-2.476-1.677c-3.605-3.022-7.774-5.108-12.324-6.51
	c-1.571-0.485-1.599-0.403-2.255-1.88c-0.43-0.969-0.861-1.938-1.291-2.908c-0.802-1.803-0.426-1.298,1.257-0.702
	c8.46,2.997,16.209,7.922,22.345,14.312C158.499,160.14,158.517,160.021,156.117,159.217L156.117,159.217z M161.578,164.344
	c3.623,5.766,6.958,12.194,8.514,18.98c0.368,1.609,0.628,2.046-0.295,3.401c-0.75,1.104-1.501,2.207-2.251,3.311
	c-0.894,1.313-0.759,0.859-2.209,0.261c-3.114-1.286-6.344-2.08-9.743-2.579c-1.799-0.264-1.576-0.363-2.395-1.968
	c-1.999-3.915-4.218-7.725-6.191-11.653c-0.642-1.276-0.612-1.156,0.17-2.328c2.104-3.147,3.527-6.577,4.235-10.282
	c0.342-1.791,0.032-1.669,1.842-1.04c1.902,0.662,3.953,1.324,5.989,1.987C160.674,162.899,160.786,163.085,161.578,164.344
	L161.578,164.344z M166.818,212.89c-0.229-0.747-0.108-1.033,0.314-2.296c1.915-5.725,2.563-11.242,1.758-17.244
	c-0.172-1.278-0.413-0.949,0.424-2.181c0.414-0.608,0.828-1.217,1.242-1.826c0.756-1.11,0.46,0.04,0.548,0.859
	c0.777,7.346-0.151,14.378-2.855,21.306C167.852,212.528,167.206,214.16,166.818,212.89L166.818,212.89z M165.684,217.203
	c-6.564,12.093-18.171,21.28-30.192,25.938c-1.24,0.481-1.431,0.646-2.631,0.065c-0.571-0.278-1.074-0.556-1.562-0.833
	c-1.198-0.681-0.785-0.792-0.432-2.063c1.049-3.772,1.886-7.521,2.029-11.183c0.062-1.547-0.207-1.625,1.107-2.507
	c5.007-3.364,9.658-6.947,13.693-11.251c1.202-1.281,1.033-1.03,2.75-0.627c4.123,0.97,8.866,0.317,12.987-0.563
	c1.251-0.267,1.279-0.593,1.976,0.473c0.148,0.229,0.298,0.457,0.447,0.685C166.426,216.208,166.184,216.283,165.684,217.203
	L165.684,217.203z M107.338,245.582c0.394-0.451,0.788-0.901,1.182-1.353c0.677-0.773,0.545-0.841,1.527-0.548
	c5.264,1.564,11.744,1.179,17.842,0.116c1.084-0.189,1.219-0.217,2.197,0.267c1.451,0.716,0.717,0.571-0.544,0.856
	C122.271,246.57,114.702,246.775,107.338,245.582L107.338,245.582z M102.939,244.65c-10.006-2.551-18.858-7.594-26.079-14.76
	c-1.14-1.132-1.119-1.22-1.021-2.79c0.034-0.548,0.068-1.096,0.102-1.644c0.089-1.438,0.215-1.048,1.647-1.146
	c5.111-0.355,10.422-2.525,14.945-4.473c3.774,3.381,7.55,6.083,11.325,8.44c1.299,0.812,1.157,0.865,1.379,2.348
	c0.478,3.181,1.336,6.233,2.232,9.328c0.452,1.563,0.633,1.572-0.442,2.802c-0.346,0.396-0.691,0.791-1.036,1.186
	C104.784,245.326,104.775,245.117,102.939,244.65L102.939,244.65z M62.068,201.285c1.68,1.3,3.361,2.6,5.041,3.899
	c0.919,0.71,0.571,0.58,0.552,1.71c-0.104,6.006,1.694,11.084,5.18,16.033c0.98,1.391,0.987,1.019,1.099,2.658
	c0.133,1.935-0.095,1.261-1.064,0.042C67.424,218.766,63.375,209.857,62.068,201.285L62.068,201.285z M69.886,166.398
	c0.828-0.063,1.656-0.124,2.483-0.186c1.24-0.092,1.377-0.368,1.898,0.725c1.985,4.162,4.273,7.948,6.845,12.13
	c0.805,1.309,0.86,1.348,0.467,2.807c-1.224,4.533-1.964,9.066-2.347,13.599c-0.108,1.279,0.108,1.425-1.047,2.031
	c-2.99,1.571-5.899,3.42-8.266,5.798c-0.899,0.904-0.684,0.916-1.719,0.116c-2.171-1.679-4.342-3.357-6.512-5.037
	c-1.124-10.745,1.259-21.128,6.566-30.539C68.794,166.884,68.765,166.482,69.886,166.398L69.886,166.398z M71.313,163.114
	c4.648-6.396,11.008-11.865,18.029-15.617c1.703-0.909,1.428-0.816,1.126,0.935c-0.096,0.554-0.191,1.108-0.287,1.661
	c-0.244,1.415-0.095,1.424-1.443,1.961c-5.829,2.322-10.435,5.735-14.104,10.431c-1.182,1.512-1.07,1.593-3.044,1.739
	C70.068,164.337,70.526,164.197,71.313,163.114L71.313,163.114z M128.631,175.136c-1.009,1.354-2.019,2.812-3.026,4.309
	c-1.116,1.659-1.057,1.493-3.104,1.464c-4.891-0.073-9.773,0.105-14.626,0.704c-1.38,0.17-1.553,0.407-2.539-0.544
	c-1.91-1.842-3.819-3.892-5.729-5.74c-1.165-1.127-0.835-1.018-0.135-2.456c1.214-2.489,2.204-5.064,3.054-7.693
	c0.38-1.18,0.279-1.127,1.554-1.293c5.241-0.688,10.482-0.969,15.722-0.845c1.743,0.04,2.03-0.289,2.749,1.21
	c1.404,2.929,3.467,5.582,5.373,8.246C128.757,173.664,129.506,173.963,128.631,175.136L128.631,175.136z M100.654,201.182
	c-2.692,0.857-5.383,1.483-8.074,2.374c-0.799,0.265-0.832,0.049-1.514-0.446c-2.9-2.104-5.846-4.136-9.087-5.708
	c-1.031-0.5-0.697-0.854-0.607-1.959c0.386-4.728,1.256-9.457,2.479-14.186c0.269-1.042,0.148-1.368,1.167-1.775
	c3.517-1.406,7.052-2.923,10.808-3.589c1.197-0.214,1.208-0.162,2.062,0.666c1.686,1.637,3.372,3.444,5.058,5.099
	c1.1,1.08,1.195,0.94,0.853,2.414c-1.192,5.114-1.877,10.347-1.978,15.59C101.797,200.888,101.875,200.792,100.654,201.182
	L100.654,201.182z M145.604,176.04c1.845,3.803,3.689,7.604,5.533,11.406c0.852,1.758,0.76,1.646-0.408,3.242
	c-1.752,2.393-3.652,4.868-5.386,7.252c-0.848,1.165-0.661,1.277-2.094,1.015c-2.793-0.513-5.586-0.818-8.379-1.322
	c-1.676-0.303-1.5-0.597-2.115-2.133c-1.747-4.358-3.521-8.706-5.54-12.954c-0.59-1.24-0.262-1.22,0.532-2.352
	c1-1.423,2-2.945,2.999-4.363c0.909-1.289,0.928-1.273,2.526-1.37c3.078-0.187,6.34-0.372,9.433-0.216
	C144.755,174.347,144.75,174.276,145.604,176.04L145.604,176.04z M144.293,202.871c0.872,2.536,1.878,5.325,2.754,7.859
	c0.482,1.391,0.82,1.51-0.196,2.6c-4.02,4.307-8.642,7.906-13.602,11.303c-1.498,1.026-1.479,1.191-3.167,0.525
	c-3.509-1.385-6.943-2.943-10.249-4.739c-1.228-0.665-1.167-0.633-1.223-1.988c-0.079-1.903-0.158-3.67-0.237-5.558
	c-0.071-1.729-0.097-1.609,1.379-2.569c4.631-3.015,9.005-6.382,13.163-9.985c0.949-0.823,0.898-0.784,2.146-0.563
	c2.517,0.446,5.033,0.695,7.549,1.15C144.031,201.162,143.841,201.554,144.293,202.871L144.293,202.871z M104.168,203.149
	c3.219,2.171,6.746,4.628,10.414,6.677c1.539,0.861,1.573,0.695,1.644,2.426c0.089,2.088,0.176,4.053,0.263,6.122
	c0.069,1.642,0.354,1.934-0.983,2.946c-2.523,1.912-5.209,3.607-7.952,5.211c-1.385,0.81-1.277,0.837-2.63-0.023
	c-4.105-2.614-7.956-5.476-11.552-8.583c-0.369-3.659-0.862-7.313-0.98-10.987c-0.034-1.101-0.177-1.101,0.899-1.452
	c2.972-0.975,5.946-1.696,8.918-2.666C103.399,202.432,103.186,202.487,104.168,203.149L104.168,203.149z M16.728,172.622
	c-0.759,0-1.322-0.172-1.695-0.509c-0.372-0.338-0.559-0.847-0.559-1.521c0-0.661,0.191-1.161,0.573-1.508
	c0.382-0.342,0.94-0.514,1.68-0.514h15.355c1.26,0,2.115,0.181,2.568,0.541c0.454,0.361,0.678,1.013,0.678,1.952v9.48
	c0,0.734-0.153,1.285-0.463,1.659c-0.306,0.375-0.76,0.564-1.356,0.564c-0.578,0-1.018-0.189-1.313-0.564
	c-0.301-0.374-0.449-0.925-0.449-1.659v-7.922h-4.674v6.705c0,0.73-0.153,1.281-0.463,1.655c-0.306,0.375-0.754,0.564-1.342,0.564
	c-0.587,0-1.031-0.189-1.327-0.564c-0.3-0.374-0.449-0.925-0.449-1.655v-6.705H16.728L16.728,172.622z M27.077,187.225
	c0.761-0.104,1.349-0.011,1.766,0.273c0.417,0.284,0.677,0.771,0.776,1.458c0.098,0.678-0.016,1.222-0.338,1.62
	c-0.323,0.399-0.856,0.648-1.607,0.751l-5.06,0.697c-1.579,0.216-2.69,0.674-3.324,1.381c-0.635,0.708-0.859,1.724-0.667,3.047
	c0.195,1.342,0.697,2.268,1.508,2.784c0.809,0.514,2.006,0.667,3.595,0.448l5.06-0.695c0.761-0.104,1.349-0.011,1.766,0.273
	c0.417,0.283,0.675,0.768,0.774,1.449c0.098,0.679-0.016,1.213-0.341,1.606c-0.322,0.391-0.858,0.635-1.609,0.737l-5.519,0.759
	c-2.5,0.344-4.519-0.076-6.054-1.249c-1.534-1.174-2.489-3.033-2.859-5.584c-0.373-2.565,0.009-4.62,1.145-6.166
	c1.135-1.547,2.96-2.488,5.471-2.832L27.077,187.225L27.077,187.225z M35.308,210.992l-5.06,1.979l1.865,4.473
	c0.404,0.969,0.906,1.605,1.503,1.9c0.599,0.3,1.331,0.277,2.208-0.065c0.828-0.324,1.363-0.793,1.604-1.412
	c0.243-0.613,0.181-1.357-0.182-2.228L35.308,210.992L35.308,210.992z M21.355,216.452c-0.704,0.276-1.292,0.321-1.769,0.144
	c-0.476-0.178-0.849-0.591-1.117-1.233c-0.267-0.639-0.288-1.185-0.069-1.635c0.219-0.449,0.671-0.811,1.366-1.083l14.237-5.571
	c1.168-0.456,2.03-0.601,2.591-0.43c0.56,0.169,1.02,0.693,1.383,1.563l2.778,6.658c0.842,2.02,1.02,3.691,0.533,5.009
	c-0.483,1.321-1.645,2.339-3.478,3.057c-1.164,0.456-2.237,0.601-3.214,0.43c-0.976-0.167-1.791-0.641-2.445-1.417
	c0.046,0.789-0.114,1.466-0.482,2.029c-0.366,0.566-0.971,1.053-1.802,1.468c-0.34,0.173-0.79,0.379-1.355,0.615
	c-0.564,0.241-0.941,0.423-1.131,0.548c-0.211,0.122-0.509,0.309-0.899,0.571c-0.392,0.258-0.673,0.423-0.846,0.49
	c-0.545,0.214-1.045,0.21-1.507-0.009c-0.467-0.216-0.818-0.617-1.059-1.191c-0.332-0.798-0.334-1.455-0.001-1.979
	c0.328-0.523,1.433-1.23,3.316-2.111c1.49-0.699,2.331-1.312,2.532-1.829c0.199-0.522,0.099-1.271-0.308-2.244l-1.681-4.03
	L21.355,216.452L21.355,216.452z M50.341,239.561c-0.469,0.318-0.939,0.434-1.414,0.35c-0.478-0.089-0.879-0.354-1.204-0.804
	c-0.421-0.584-0.461-1.403-0.117-2.45c0.083-0.265,0.144-0.47,0.193-0.61c0.141-0.524,0.141-1.073-0.001-1.632
	s-0.434-1.139-0.872-1.745c-0.633-0.875-1.303-1.432-2.011-1.669c-0.703-0.239-1.38-0.136-2.03,0.305
	c-0.888,0.602-0.883,1.987,0.015,4.156c0.215,0.531,0.375,0.938,0.494,1.224c0.543,1.37,0.919,2.392,1.129,3.062
	c0.207,0.672,0.334,1.275,0.394,1.811c0.091,0.948-0.061,1.803-0.459,2.558c-0.398,0.756-1.054,1.443-1.97,2.064
	c-1.674,1.135-3.413,1.463-5.218,0.981c-1.802-0.477-3.421-1.71-4.854-3.691c-0.767-1.061-1.31-2.054-1.626-2.983
	c-0.321-0.929-0.478-1.935-0.476-3.02c0.013-0.732,0.166-1.424,0.464-2.061c0.297-0.635,0.686-1.113,1.171-1.443
	c0.5-0.339,1.013-0.478,1.532-0.412c0.52,0.065,0.946,0.324,1.272,0.775c0.427,0.591,0.425,1.41-0.008,2.449
	c-0.165,0.4-0.28,0.709-0.347,0.93c-0.179,0.607-0.194,1.216-0.048,1.828c0.146,0.612,0.458,1.247,0.935,1.906
	c0.753,1.042,1.506,1.705,2.26,1.99c0.75,0.287,1.485,0.184,2.205-0.305c1.005-0.682,0.843-2.615-0.494-5.802l-0.111-0.274
	c-1.032-2.45-1.446-4.298-1.243-5.549c0.203-1.243,1.014-2.347,2.426-3.305c1.596-1.082,3.233-1.38,4.911-0.897
	c1.674,0.485,3.218,1.702,4.628,3.653c0.649,0.897,1.129,1.779,1.449,2.658c0.321,0.871,0.476,1.754,0.469,2.64
	c0.001,0.693-0.136,1.352-0.409,1.966C51.106,238.829,50.76,239.277,50.341,239.561L50.341,239.561z M54.321,243.429
	c-0.505-0.473-0.776-0.926-0.812-1.363c-0.038-0.435,0.153-0.866,0.575-1.289c0.421-0.422,0.866-0.623,1.329-0.602
	c0.467,0.019,0.944,0.26,1.435,0.719l9.225,8.628c0.498,0.467,0.763,0.92,0.798,1.37c0.035,0.444-0.16,0.879-0.581,1.302
	c-0.415,0.416-0.85,0.613-1.31,0.595c-0.46-0.025-0.937-0.266-1.436-0.731l-3.087-2.888L50.09,259.568
	c-0.524,0.525-1.046,0.803-1.556,0.827c-0.509,0.025-1.02-0.201-1.531-0.68c-0.509-0.476-0.757-0.965-0.753-1.469
	c0.008-0.501,0.269-1.009,0.79-1.531l10.368-10.398L54.321,243.429L54.321,243.429z M74.327,273.275
	c0.662,0.37,1.083,0.782,1.259,1.228c0.173,0.449,0.102,0.938-0.213,1.468c-0.308,0.516-0.713,0.817-1.208,0.898
	s-1.068-0.058-1.726-0.426l-9.423-5.27c-0.84-0.47-1.311-0.983-1.406-1.545c-0.096-0.561,0.167-1.363,0.793-2.412l7.061-11.847
	c0.631-1.058,1.219-1.685,1.769-1.885c0.549-0.199,1.244-0.062,2.083,0.407l8.952,5.006c0.654,0.365,1.074,0.771,1.253,1.219
	c0.182,0.443,0.125,0.919-0.174,1.419c-0.288,0.484-0.678,0.76-1.161,0.82c-0.485,0.064-1.056-0.088-1.708-0.453l-7.559-4.228
	l-2.196,3.685l6.793,3.8c0.657,0.367,1.071,0.764,1.252,1.19c0.179,0.432,0.122,0.896-0.177,1.396
	c-0.284,0.478-0.67,0.747-1.153,0.808c-0.485,0.065-1.043-0.081-1.684-0.439l-6.793-3.799l-2.664,4.469L74.327,273.275
	L74.327,273.275z M87.431,279.791c-0.192,0.807-0.502,1.368-0.93,1.681c-0.432,0.312-0.99,0.392-1.679,0.237
	c-0.711-0.159-1.182-0.464-1.414-0.914c-0.231-0.45-0.25-1.091-0.053-1.915l3.461-14.522c0.281-1.181,0.654-1.942,1.119-2.289
	c0.465-0.348,1.171-0.412,2.116-0.201c1.084,0.242,1.953,1.367,2.61,3.379c0.064,0.181,0.111,0.314,0.133,0.405l3.974,12.065
	l2.681-11.247c0.192-0.807,0.503-1.368,0.925-1.682c0.423-0.314,0.986-0.392,1.683-0.236c0.703,0.157,1.169,0.461,1.409,0.918
	c0.234,0.456,0.253,1.096,0.059,1.912l-3.475,14.576c-0.268,1.127-0.622,1.868-1.057,2.231c-0.434,0.363-1.067,0.45-1.891,0.266
	c-0.73-0.163-1.273-0.413-1.633-0.754c-0.359-0.343-0.718-1.059-1.081-2.146l-4.284-12.989L87.431,279.791L87.431,279.791z
	 M116.897,283.235c-0.204,1.104-0.473,1.826-0.805,2.169c-0.338,0.339-0.922,0.516-1.762,0.529
	c-0.754,0.013-1.287-0.104-1.596-0.348c-0.305-0.24-0.658-0.987-1.053-2.234l-4.551-14.358c-0.112-0.377-0.184-0.658-0.221-0.843
	c-0.036-0.185-0.058-0.346-0.07-0.479c-0.011-0.624,0.176-1.127,0.555-1.518c0.38-0.39,0.873-0.593,1.479-0.604
	c0.587-0.01,1.044,0.154,1.37,0.491c0.331,0.341,0.614,0.956,0.854,1.858l3.219,11.911l2.333-11.982
	c0.179-0.923,0.464-1.558,0.854-1.91c0.39-0.349,0.993-0.53,1.814-0.544c0.812-0.014,1.411,0.138,1.799,0.455
	c0.388,0.322,0.705,1.001,0.944,2.047l2.732,11.757l2.657-11.566c0.271-1.151,0.567-1.915,0.89-2.29
	c0.323-0.375,0.787-0.568,1.384-0.579c0.63-0.01,1.116,0.153,1.441,0.485c0.326,0.332,0.498,0.838,0.51,1.513
	c0.003,0.139-0.014,0.314-0.048,0.533c-0.034,0.218-0.082,0.463-0.153,0.747l-4.06,14.568c-0.036,0.106-0.076,0.251-0.116,0.423
	c-0.412,1.505-1.201,2.269-2.365,2.288c-0.83,0.014-1.411-0.129-1.746-0.434c-0.33-0.3-0.625-1.017-0.875-2.149l-2.934-12.854
	L116.897,283.235L116.897,283.235z M140.786,265.426l0.155,8.934l5.409-1.805L140.786,265.426L140.786,265.426z M141.074,280.894
	c0.011,0.529-0.098,0.962-0.336,1.3c-0.234,0.337-0.604,0.588-1.105,0.755c-0.573,0.191-1.094,0.189-1.562-0.002
	c-0.467-0.191-0.794-0.542-0.975-1.055c-0.063-0.174-0.108-0.346-0.135-0.517c-0.025-0.174-0.034-0.355-0.023-0.551l0.171-16.451
	c0.011-0.947,0.16-1.609,0.452-1.979c0.294-0.368,0.887-0.702,1.79-1.004c0.854-0.284,1.512-0.376,1.978-0.272
	s1.008,0.52,1.621,1.249l10.719,12.879c0.133,0.146,0.241,0.296,0.33,0.447c0.09,0.15,0.162,0.313,0.225,0.487
	c0.179,0.503,0.143,0.97-0.105,1.41c-0.249,0.435-0.667,0.75-1.249,0.944c-0.492,0.165-0.935,0.185-1.331,0.063
	c-0.391-0.119-0.754-0.399-1.084-0.832l-1.887-2.394l-7.552,2.519L141.074,280.894L141.074,280.894z M163.611,272.801
	c-0.813,0.512-1.5,0.685-2.06,0.513s-1.178-0.765-1.859-1.78l-8.378-12.496c-0.393-0.586-0.538-1.134-0.445-1.649
	c0.092-0.517,0.419-0.953,0.983-1.309c0.593-0.373,1.142-0.497,1.647-0.38c0.501,0.12,0.956,0.484,1.37,1.102l8.082,12.054
	l6.534-4.11c0.681-0.428,1.291-0.631,1.838-0.605c0.544,0.022,0.975,0.275,1.295,0.752c0.37,0.551,0.471,1.061,0.302,1.52
	c-0.167,0.464-0.629,0.931-1.378,1.401L163.611,272.801L163.611,272.801z M169.271,248.406l9.21,9.237l2.446-2.287
	c1.414-1.323,2.084-2.644,1.998-3.953c-0.077-1.31-0.925-2.772-2.53-4.383c-1.599-1.604-3.071-2.508-4.412-2.707
	c-1.344-0.202-2.639,0.282-3.896,1.458L169.271,248.406L169.271,248.406z M179.928,261.298c-0.697,0.652-1.338,0.948-1.92,0.883
	c-0.584-0.065-1.308-0.532-2.177-1.403l-9.811-9.841c-0.875-0.878-1.335-1.598-1.382-2.165c-0.048-0.566,0.281-1.176,0.978-1.828
	l3.953-3.697c2.273-2.127,4.564-3.118,6.864-2.975s4.658,1.423,7.068,3.841c1.308,1.312,2.256,2.661,2.842,4.048
	s0.787,2.754,0.611,4.096c-0.136,1.008-0.481,1.961-1.034,2.864c-0.557,0.899-1.508,1.981-2.864,3.251L179.928,261.298
	L179.928,261.298z M198.966,232.52c0.405-0.627,0.846-1.021,1.311-1.175c0.47-0.152,0.972-0.066,1.506,0.257
	c0.523,0.316,0.82,0.72,0.887,1.201c0.066,0.482-0.098,1.032-0.5,1.655l-5.766,8.938c-0.514,0.796-1.061,1.233-1.643,1.307
	s-1.401-0.21-2.462-0.853l-11.978-7.249c-1.068-0.646-1.695-1.238-1.882-1.776c-0.188-0.539-0.021-1.207,0.492-2.004l5.478-8.49
	c0.4-0.619,0.833-1.012,1.302-1.17c0.464-0.161,0.952-0.089,1.458,0.217c0.49,0.298,0.759,0.684,0.806,1.153
	c0.05,0.472-0.128,1.019-0.528,1.638l-4.625,7.169l3.726,2.255l4.156-6.443c0.402-0.624,0.827-1.011,1.273-1.171
	c0.451-0.157,0.929-0.087,1.435,0.22c0.481,0.292,0.747,0.675,0.793,1.145c0.05,0.473-0.12,1.007-0.513,1.615l-4.157,6.443
	l4.519,2.734L198.966,232.52L198.966,232.52z M204.148,212.629c1.16,0.273,2.116,0.231,2.873-0.126s1.273-1.013,1.552-1.955
	c0.129-0.436,0.184-0.854,0.168-1.253c-0.017-0.398-0.105-0.77-0.266-1.117c-0.04-0.083-0.1-0.2-0.172-0.341
	c-0.41-0.812-0.543-1.455-0.402-1.931c0.126-0.427,0.373-0.738,0.736-0.945c0.368-0.201,0.759-0.246,1.182-0.129
	c0.303,0.084,0.583,0.243,0.841,0.479c0.253,0.233,0.491,0.555,0.711,0.952c0.412,0.773,0.65,1.629,0.713,2.574
	c0.064,0.941-0.05,1.916-0.349,2.925c-0.606,2.049-1.799,3.474-3.572,4.28c-1.776,0.801-3.877,0.867-6.31,0.191
	c-2.392-0.665-4.102-1.779-5.135-3.341c-1.032-1.566-1.242-3.371-0.635-5.421c0.608-2.058,1.747-3.521,3.409-4.388
	c1.663-0.871,3.589-1,5.778-0.392c0.643,0.179,1.055,0.413,1.222,0.705c0.172,0.293,0.124,0.891-0.144,1.793l-0.119,0.404
	L204.148,212.629L204.148,212.629z M203.228,206.34c-1-0.229-1.824-0.18-2.483,0.148c-0.654,0.333-1.111,0.937-1.37,1.813
	c-0.246,0.831-0.183,1.556,0.192,2.165c0.38,0.616,1.048,1.095,2.011,1.449L203.228,206.34L203.228,206.34z M211.384,199.034
	c-0.638-0.087-1.153-0.386-1.558-0.894c-0.403-0.513-0.557-1.08-0.466-1.707c0.094-0.646,0.399-1.16,0.923-1.546
	c0.523-0.382,1.109-0.531,1.767-0.442c0.657,0.09,1.182,0.395,1.585,0.912c0.4,0.521,0.554,1.094,0.463,1.721
	c-0.09,0.618-0.403,1.117-0.937,1.507C212.623,198.973,212.032,199.122,211.384,199.034L211.384,199.034z M212.584,178.027
	c0.988,0.333,1.595,0.671,1.823,1.008c0.229,0.338,0.344,0.884,0.344,1.633c0,1.281-0.692,2.155-2.072,2.613l-0.038,0.014
	l-15.88,5.244c-0.157,0.056-0.314,0.097-0.477,0.129c-0.158,0.033-0.32,0.047-0.487,0.047c-0.664,0-1.198-0.198-1.604-0.597
	c-0.405-0.398-0.606-0.911-0.606-1.545c0-0.55,0.177-0.989,0.53-1.317c0.357-0.333,0.979-0.624,1.876-0.874l13.315-3.714
	l-13.287-3.728c-0.792-0.222-1.394-0.536-1.8-0.934c-0.405-0.397-0.606-0.879-0.606-1.447c0-0.578,0.187-1.05,0.56-1.415
	c0.372-0.365,0.854-0.551,1.441-0.551c0.187,0,0.372,0.014,0.563,0.047c0.195,0.032,0.387,0.078,0.582,0.143L212.584,178.027
	L212.584,178.027z M212.441,172.945c-0.645,0-1.198-0.227-1.671-0.675c-0.473-0.453-0.706-0.994-0.706-1.628
	c0-0.652,0.229-1.202,0.692-1.655c0.462-0.449,1.021-0.676,1.685-0.676c0.664,0,1.228,0.231,1.7,0.689
	c0.473,0.462,0.706,1.008,0.706,1.642c0,0.624-0.238,1.161-0.711,1.619C213.659,172.718,213.095,172.945,212.441,172.945
	L212.441,172.945z M33.64,186.409c1.212,0,2.2,0.964,2.2,2.145c0,1.182-0.988,2.146-2.2,2.146c-1.213,0-2.202-0.964-2.202-2.146
	C31.438,187.373,32.427,186.409,33.64,186.409L33.64,186.409z M34.98,197.953c1.213,0,2.202,0.964,2.202,2.146
	c0,1.181-0.989,2.144-2.202,2.144c-1.212,0-2.201-0.963-2.201-2.144C32.779,198.917,33.768,197.953,34.98,197.953L34.98,197.953z
	 M92.357,15.982c13.482,0,26.964,0,40.446,0c1.092,0,1.22-0.092,1.958,0.699c2.57,2.75,5.141,5.501,7.71,8.251
	c0.48,0.514,0.563,0.527,0.507,1.223c-0.306,3.841-0.612,7.683-0.919,11.524c-0.114,1.436-0.109,1.193-1.54,1.193
	c-4.719,0-9.438,0-14.158,0c-1.495,0-1.2-0.058-1.2-1.534c0-1.826,0-3.651,0-5.478c0-1.278,0.236-1.298-1.056-1.298
	c-7.151,0-14.302,0-21.453,0c-0.954,0-1.34,0.028-1.224,1.049c0.81,7.064,1.621,13.764,2.431,20.83
	c8.798-0.036,17.595-0.073,26.395-0.109c1.193-0.005,1.266-0.038,2.092,0.814c2.321,2.395,4.644,4.791,6.964,7.186
	c0.847,0.874,0.691,1.006,0.562,2.227c-1.003,9.35-2.007,18.7-3.01,28.048c-0.15,1.4-0.179,2.047-0.947,3.209
	c-2.03,3.066-4.061,6.134-6.091,9.201c-0.981,1.483-1.01,1.313-2.797,1.3l-24.07-0.178c-1.31-0.01-1.616-0.198-2.578-1.105
	c-2.036-1.92-4.072-3.84-6.108-5.76c-1.059-0.999-1.029-1.222-1.181-2.683c-0.495-4.724-0.99-9.448-1.484-14.171
	c-0.093-0.887-0.37-1.061,0.563-1.066c4.214-0.032,8.429-0.064,12.644-0.096c1.131-0.008,1.063-0.151,1.134,0.981
	c0.165,2.59,0.33,5.18,0.493,7.77c0.086,1.368,0.174,1.793,1.599,1.792c4.981-0.007,9.03-0.019,14.01-0.027
	c1.531-0.002,1.79,0.098,1.839-1.43c0.201-6.289,0.403-12.579,0.604-18.869c0.058-1.808-0.231-1.909-1.393-1.906
	c-8.378,0.018-16.757,0.024-25.135,0.036c-2.604-2.778-5.208-5.556-7.812-8.334c-0.876-0.934-0.852-1.25-0.995-2.537
	c-1.074-9.647-2.15-19.295-3.224-28.942c-0.108-0.968-0.168-1.195,0.312-2.031c1.771-3.095,3.545-6.19,5.316-9.285
	C91.841,15.99,91.798,15.982,92.357,15.982L92.357,15.982z M115.402,295.312c-41.203,0.196-78.96-23.338-97.827-58.845
	c-8.601-16.184-12.309-32.791-12.773-51.08L4.812,7.008C4.816,5.42,5.48,4.826,7.364,4.772
	c72.047-0.029,144.514-0.058,216.561-0.087c0.396-0.011,0.631,0.256,0.68,0.65v176.468c0,27.347-8.786,54.35-26.973,75.376
	C177.216,280.79,146.956,295.161,115.402,295.312L115.402,295.312z M115.39,293.527c-40.537,0.191-78.089-23.068-96.349-58.148
	c-8.297-15.944-11.937-32.034-12.394-50.014L6.657,7.656c0.001-0.83,0.225-1.04,1.069-1.096
	C79.11,6.531,150.693,6.502,222.077,6.473c0.472,0.026,0.698,0.195,0.683,0.66v174.845c0,26.865-8.681,53.415-26.545,74.068
	C176.147,279.247,146.403,293.378,115.39,293.527L115.39,293.527z"/>
<path fill="#009540" d="M17.896,130.288c2.712,0,5.454,1.783,5.551,4.279c0.096,2.496-2.466,4.866-5.179,4.866
	c-2.712,0-5.235-2.185-5.331-4.712C12.84,132.195,15.183,130.288,17.896,130.288L17.896,130.288z M34.252,115.604
	c2.578,0.544,4.56,2.58,3.776,4.678c-0.781,2.1-4.045,3.561-6.622,3.017c-2.578-0.544-4.21-2.869-3.417-4.995
	C28.783,116.18,31.675,115.061,34.252,115.604L34.252,115.604z M12.696,100.816c2.397-0.858,5.832-0.349,7.332,1.547
	c1.5,1.897,0.578,4.539-1.819,5.396c-2.398,0.858-5.865-0.03-7.382-1.951C9.31,103.888,10.299,101.674,12.696,100.816
	L12.696,100.816z M34.158,82.973c2.51,0.682,4.058,3.811,3.047,5.862c-1.01,2.05-3.536,3.199-6.046,2.518
	c-2.51-0.681-4.36-2.825-3.542-5.43C28.437,83.318,31.648,82.292,34.158,82.973L34.158,82.973z M25.84,61.438
	c-2.871,3.683-2.441,11.18-2.416,15.668c-5.892-4.989-6.076-10.849,0.677-16.911C24.695,60.581,25.293,60.994,25.84,61.438
	L25.84,61.438z M13.772,83.692c0.333,2.011,1.172,3.705,2.323,5.235c-0.489,0.502-0.27,0.9-0.012,1.493
	c1.781,2.73,4.493,4.978,6.909,7.15c-6.625-2.633-13.017-6.643-11.67-14.592C12.15,83.179,12.965,83.422,13.772,83.692
	L13.772,83.692z M13.43,111.245c0.352,1.917,1.393,3.666,2.772,5.299c-0.534,0.574-0.35,0.909-0.045,1.583
	c1.726,2.596,4.366,4.849,6.708,6.938c-5.575-2.091-13.225-5.701-11.503-14.405C12.057,110.827,12.752,111.018,13.43,111.245
	L13.43,111.245z M39.417,99.981c-5.5,2.246-8.156,7.022-12.34,10.682c0.729-6.447,5.89-10.64,12.18-12.143L39.417,99.981
	L39.417,99.981z M39.01,127.364c-5.067,2.612-8.142,7.215-12.292,10.84c0.72-6.498,5.928-10.65,12.146-12.143L39.01,127.364
	L39.01,127.364z M211.521,130.288c-2.713,0-5.455,1.783-5.551,4.279c-0.097,2.496,2.465,4.866,5.179,4.866
	c2.712,0,5.234-2.185,5.331-4.712C216.576,132.195,214.234,130.288,211.521,130.288L211.521,130.288z M195.164,115.604
	c-2.577,0.544-4.559,2.58-3.776,4.678c0.781,2.1,4.046,3.561,6.622,3.017c2.577-0.544,4.21-2.869,3.417-4.995
	C200.632,116.18,197.741,115.061,195.164,115.604L195.164,115.604z M216.006,99.896c-2.397-0.859-5.595-0.062-7.094,2.238
	c-1.5,2.299-0.341,4.941,2.057,5.799s5.746,0.027,6.967-1.836C219.156,104.233,218.404,100.753,216.006,99.896L216.006,99.896z
	 M195.674,82.072c-7.237,2.411-3.163,11.847,3.265,9.016C204.851,88.484,201.273,80.207,195.674,82.072L195.674,82.072z
	 M203.457,61.553c3.262,4.184,2.563,10.557,2.535,15.554c5.778-4.894,6.007-10.701-0.678-16.911
	C204.667,60.615,203.974,61.16,203.457,61.553L203.457,61.553z M215.645,83.692c-0.334,2.011-1.173,3.705-2.324,5.235
	c0.663,0.681,0.021,1.48-0.414,2.146c-1.891,2.399-4.206,4.45-6.481,6.497c5.593-2.237,13.274-6.405,11.67-14.592
	C217.266,83.179,216.452,83.422,215.645,83.692L215.645,83.692z M215.986,111.245c-0.352,1.917-1.393,3.666-2.772,5.299
	c0.534,0.574,0.172,1.14-0.133,1.813c-1.689,2.542-4.241,4.666-6.529,6.708c6.811-2.983,13.17-5.917,11.503-14.405
	C217.359,110.827,216.664,111.018,215.986,111.245L215.986,111.245z M190.177,100.039c5.501,2.246,7.978,6.965,12.162,10.624
	c-0.732-6.469-5.337-10.522-12.12-12.143L190.177,100.039L190.177,100.039z M202.699,138.205
	c-0.765-6.631-5.35-10.479-12.086-12.143l-0.136,1.901C195.417,130.253,198.884,133.752,202.699,138.205L202.699,138.205z
	 M187.612,64.964v119.984c0,20.235-8.083,38.638-21.104,51.983c-13.051,13.376-31.057,21.679-50.867,21.679
	c-19.81,0-37.815-8.303-50.866-21.679c-13.021-13.346-21.104-31.748-21.104-51.983V67.217l3.691,7.828v109.903
	c0,19.296,7.697,36.832,20.094,49.54c12.37,12.678,29.427,20.548,48.185,20.548c18.758,0,35.815-7.87,48.184-20.548
	c12.398-12.708,20.095-30.244,20.095-49.54V73.569L187.612,64.964L187.612,64.964z M79.726,67.224
	c1.081-0.002,1.367-0.161,1.197-0.845c-0.671-4.261-1.341-8.438-2.004-12.531c-0.188-1.166,0.063-1.521-1.23-1.543l-18.846-0.17
	c-1.215-0.035-1.527-0.339-2.042-1.396l-9.444-19.177c0.058-1.158,0.793-1.045,1.752-1.024l24.502,0.142
	c2.01,0.007,1.99,0.083,1.722-2.073c-0.458-3.687-0.925-7.374-1.386-11.06c-0.175-1.402-0.24-1.256-1.656-1.256H24.313
	c-1.315,0-1.169,0.098-0.648,1.203c13.47,28.57,26.942,57.139,40.413,85.708c0.279,0.792,0.896,1.16,1.854,1.104h13.468
	c1.593,0,1.68,0.379,1.063-0.966c-5.334-11.603-10.667-23.207-15.994-34.812c-0.259-0.779,0.011-1.194,0.824-1.289
	C70.23,67.209,74.789,67.224,79.726,67.224L79.726,67.224z"/>
</svg>
